<?xml version="1.0" standalone="no"?><!DOCTYPE svg PUBLIC "-//W3C//DTD SVG 1.1//EN" "http://www.w3.org/Graphics/SVG/1.1/DTD/svg11.dtd"><svg t="1497066118081" class="icon" style="" viewBox="0 0 1024 1024" version="1.1" xmlns="http://www.w3.org/2000/svg" p-id="995" xmlns:xlink="http://www.w3.org/1999/xlink" width="200" height="200"><defs><style type="text/css"></style></defs><path d="M787.658752 340.26496c0-152.02304-123.31008-275.28192-275.310592-275.28192-152.044544 0-275.3536 123.25888-275.3536 275.28192 0 50.190336 13.705216 97.127424 37.085184 137.65632l-0.206848 0 238.368768 481.788928 238.507008-481.788928-0.275456 0C773.9904 437.392384 787.658752 390.455296 787.658752 340.26496zM512.310272 421.98016c-63.85664 0-115.657728-51.7632-115.657728-115.61984 0-63.893504 51.801088-115.69152 115.657728-115.69152 63.926272 0 115.687424 51.79904 115.687424 115.69152C627.997696 370.21696 576.236544 421.98016 512.310272 421.98016z" p-id="996" fill="#13227a"></path></svg>